# xmcd CD Database Entry
#
# Track frame offsets:
# 150
# 14379
# 29431
# 45729
# 59009
# 73357
#
# Disc length: 1219 seconds
#
# Revision: 3
# Processed by: cddbd v1.4PL0 Copyright (c) Steve Scherf et al.
# Submitted via: tcd 2.0b
#
DISCID=5704c106
DTITLE=La veuve noire - La veuve noire
DYEAR=1900
DGENRE=
TTITLE0=L'armée des ombres
TTITLE1=Sur le fil
TTITLE2=La nonchalance
TTITLE3=Lunatique
TTITLE4=Langue de bois
TTITLE5=Roum Kataheïna
EXTD=
EXTT0=
EXTT1=
EXTT2=
EXTT3=
EXTT4=
EXTT5=
PLAYORDER=
